<?xml version="1.0" standalone="no"?>
<!DOCTYPE svg PUBLIC "-//W3C//DTD SVG 20010904//EN"
 "http://www.w3.org/TR/2001/REC-SVG-20010904/DTD/svg10.dtd">
<svg version="1.0" xmlns="http://www.w3.org/2000/svg"
 width="401.000000pt" height="401.000000pt" viewBox="0 0 401.000000 401.000000"
 preserveAspectRatio="xMidYMid meet">
<metadata>
Created by potrace 1.11, written by Peter Selinger 2001-2013
</metadata>
<g transform="translate(0.000000,401.000000) scale(0.100000,-0.100000)"
fill="#000000" stroke="none">
<path d="M1670 4003 c-14 -2 -56 -11 -95 -19 -38 -9 -88 -19 -111 -24 -53 -12
-167 -50 -179 -61 -5 -5 -17 -9 -26 -9 -26 0 -271 -128 -375 -196 -50 -32
-116 -79 -145 -104 -63 -52 -272 -259 -313 -310 -44 -54 -170 -248 -210 -323
-37 -71 -124 -281 -137 -332 -4 -16 -14 -56 -23 -88 -48 -175 -51 -201 -51
-502 0 -240 3 -305 18 -380 10 -49 22 -101 26 -115 5 -14 14 -45 21 -70 21
-73 40 -134 49 -155 5 -11 17 -38 26 -60 118 -270 253 -468 454 -663 89 -86
243 -211 301 -243 14 -8 32 -19 40 -25 16 -12 134 -77 190 -105 40 -20 90 -41
140 -59 19 -6 44 -16 55 -20 188 -75 473 -117 730 -107 150 6 214 15 395 54
113 24 145 33 205 58 17 7 57 23 90 35 71 28 263 126 286 146 8 8 19 14 23 14
18 0 170 116 271 207 280 254 444 508 575 893 15 44 58 232 70 310 17 100 17
443 0 550 -14 93 -54 272 -75 335 -42 127 -122 307 -172 388 -13 21 -33 55
-45 75 -43 78 -168 232 -268 332 -117 117 -204 190 -333 276 -77 51 -256 146
-317 169 -25 9 -54 21 -65 25 -23 11 -139 46 -210 65 -147 39 -213 45 -504 44
-157 -1 -297 -4 -311 -6z m150 -589 c0 -3 -14 -26 -31 -50 -17 -25 -29 -48
-26 -51 3 -2 42 2 87 11 44 8 87 13 95 10 8 -3 34 1 57 9 24 9 56 18 71 22
l28 6 -16 -31 c-8 -16 -20 -30 -25 -30 -6 0 -10 -7 -10 -15 0 -8 9 -15 21 -15
l20 0 -21 -30 c-21 -30 -15 -38 18 -21 48 24 180 71 202 71 15 0 -30 -49 -67
-72 -18 -11 -31 -23 -29 -27 8 -12 177 0 224 15 23 8 50 14 58 14 14 0 14 -2
0 -16 -29 -28 -19 -41 38 -48 30 -3 67 -11 83 -17 34 -13 24 -20 -54 -40 -29
-7 -53 -15 -53 -18 1 -3 15 -13 33 -22 121 -61 146 -76 150 -91 3 -10 13 -18
22 -18 9 0 42 -12 73 -27 47 -22 53 -28 36 -34 -10 -4 -36 -8 -56 -8 -42 -1
-47 -7 -20 -27 15 -12 15 -15 2 -23 -21 -14 -3 -29 62 -54 29 -10 68 -25 86
-31 41 -16 31 -26 -24 -26 -24 0 -46 -4 -49 -10 -3 -5 -3 -10 2 -10 4 0 33
-22 63 -50 30 -27 58 -49 63 -50 4 0 7 -7 7 -15 0 -11 -12 -15 -44 -15 -73 0
-67 -24 14 -62 38 -18 66 -36 64 -40 -3 -4 -29 -8 -57 -8 l-52 -1 26 -22 c14
-12 39 -33 56 -47 53 -44 161 -214 143 -225 -4 -3 -25 4 -44 16 l-36 21 0 -22
c0 -23 -8 -23 -53 -5 -13 5 -5 -13 26 -61 43 -67 87 -147 87 -159 0 -9 -53 28
-82 58 -28 27 -59 39 -41 15 5 -7 14 -31 21 -53 39 -140 63 -194 97 -217 6 -5
3 -8 -7 -8 -9 0 -20 5 -23 10 -3 5 -16 10 -27 10 -20 0 -21 -3 -14 -92 l6 -92
-24 33 c-13 18 -30 46 -36 62 -7 16 -18 28 -24 26 -13 -4 -42 -82 -51 -138 -4
-21 -11 -39 -15 -39 -12 0 -30 -66 -30 -107 0 -17 -3 -39 -6 -48 -6 -14 -10
-12 -25 12 -11 15 -19 36 -19 46 0 19 -15 23 -25 7 -12 -19 -35 -10 -41 15
-12 49 -32 28 -39 -42 -7 -76 -57 -303 -66 -303 -7 0 -25 80 -38 165 l-8 50
-7 -50 c-4 -27 -17 -75 -28 -105 -23 -65 -45 -157 -53 -222 -4 -31 -10 -45
-18 -42 -15 5 -47 112 -47 156 l0 33 -19 -24 c-10 -13 -27 -59 -37 -102 -10
-43 -21 -75 -25 -71 -3 4 -14 34 -24 67 -10 33 -28 80 -41 105 -35 69 -64 148
-64 175 0 34 -20 24 -58 -28 -107 -149 -172 -369 -172 -580 0 -66 -3 -88 -12
-85 -21 7 -108 137 -148 223 -51 105 -67 157 -76 232 -8 76 -27 89 -44 30 -6
-23 -15 -55 -20 -72 -29 -103 -50 -191 -50 -209 0 -17 -2 -18 -10 -6 -5 8 -10
34 -10 57 0 23 -4 52 -9 65 -5 13 -17 43 -26 68 -26 67 -84 190 -90 190 -21 0
-85 -151 -85 -200 0 -35 -10 -44 -26 -22 -11 15 -23 61 -54 198 -26 114 -21
382 9 526 19 89 75 198 121 235 13 11 13 13 0 14 -70 6 -167 -22 -269 -78 -56
-31 -73 -36 -137 -37 -64 -1 -75 2 -99 24 -15 14 -33 40 -41 59 -15 37 -19
147 -5 155 11 7 22 73 14 92 -9 24 -23 5 -23 -32 0 -19 -4 -34 -9 -34 -19 0
-33 33 -46 111 -12 77 -12 82 6 86 10 3 21 14 24 24 4 11 24 27 46 36 38 15
67 48 55 61 -3 3 -17 -1 -31 -8 -19 -10 -30 -11 -50 -2 -14 7 -46 12 -70 12
-41 0 -45 2 -45 25 0 31 45 78 130 135 86 57 188 136 226 174 24 25 32 44 37
85 5 41 16 66 49 110 51 68 109 124 163 156 29 17 49 41 70 82 46 90 133 170
245 227 52 26 99 52 105 57 10 10 45 13 45 3z"/>
<path d="M1375 2696 c-6 -8 -21 -29 -34 -47 l-25 -32 35 7 c19 4 50 9 69 12
39 5 80 23 80 35 0 14 -57 39 -87 39 -15 0 -33 -6 -38 -14z"/>
<path d="M990 2020 c0 -5 6 -10 14 -10 8 0 16 -5 18 -11 2 -6 15 -9 28 -7 23
4 24 5 5 12 -11 4 -28 12 -37 17 -23 12 -28 11 -28 -1z"/>
<path d="M1245 1988 c-22 -5 -66 -7 -97 -5 -66 6 -88 -8 -31 -19 92 -18 203
-6 203 21 0 17 -17 17 -75 3z"/>
<path d="M1473 1903 c9 -2 23 -2 30 0 6 3 -1 5 -18 5 -16 0 -22 -2 -12 -5z"/>
</g>
</svg>
